<?xml version="1.0" encoding="utf-8"?>
<!-- Generator: Adobe Illustrator 26.5.0, SVG Export Plug-In . SVG Version: 6.00 Build 0)  -->
<svg version="1.1" id="Layer_1" xmlns="http://www.w3.org/2000/svg" xmlns:xlink="http://www.w3.org/1999/xlink" x="0px" y="0px"
	 viewBox="0 0 130.94 252" style="enable-background:new 0 0 130.94 252;" xml:space="preserve">
<style type="text/css">
	.st0{fill:#000000;}
</style>
<polygon class="st0" points="130.94,88.2 130.94,138.6 109.12,151.2 130.94,163.8 130.94,214.2 65.47,252 0,214.2 0,88.2 
	21.82,75.6 65.47,100.8 43.64,113.4 21.82,100.8 21.82,201.6 65.47,226.8 109.12,201.6 109.12,176.4 87.29,163.8 65.47,176.4 
	43.64,163.8 43.64,138.6 65.47,151.2 109.12,126 109.12,100.8 0,37.8 65.47,0 130.94,37.8 109.12,50.4 65.47,25.2 43.64,37.8 "/>
</svg>
